<svg width="24" height="24" viewBox="0 0 24 24" fill="none" xmlns="http://www.w3.org/2000/svg">
<g clip-path="url(#clip0_49_11763)">
<path d="M13.27 12L18.64 6.64002C18.739 6.55972 18.82 6.45953 18.8778 6.34592C18.9356 6.23232 18.9689 6.10784 18.9755 5.98055C18.9821 5.85326 18.9619 5.726 18.9162 5.60702C18.8705 5.48803 18.8003 5.37998 18.7102 5.28985C18.6201 5.19972 18.512 5.12953 18.393 5.08383C18.274 5.03812 18.1468 5.01793 18.0195 5.02454C17.8922 5.03116 17.7677 5.06444 17.6541 5.12223C17.5405 5.18002 17.4403 5.26104 17.36 5.36002L12 10.73L6.64001 5.36002C6.46526 5.21827 6.24419 5.14628 6.01948 5.15796C5.79477 5.16964 5.58236 5.26416 5.42325 5.42326C5.26414 5.58237 5.16962 5.79479 5.15794 6.0195C5.14626 6.24421 5.21825 6.46528 5.36001 6.64002L10.73 12L5.36001 17.36C5.19146 17.5304 5.09692 17.7604 5.09692 18C5.09692 18.2397 5.19146 18.4697 5.36001 18.64C5.53161 18.8062 5.76113 18.8991 6.00001 18.8991C6.23889 18.8991 6.4684 18.8062 6.64001 18.64L12 13.27L17.36 18.64C17.5316 18.8062 17.7611 18.8991 18 18.8991C18.2389 18.8991 18.4684 18.8062 18.64 18.64C18.8086 18.4697 18.9031 18.2397 18.9031 18C18.9031 17.7604 18.8086 17.5304 18.64 17.36L13.27 12Z" fill="white"/>
</g>
<defs>
<clipPath id="clip0_49_11763">
<rect width="24" height="24" fill="white"/>
</clipPath>
</defs>
</svg>
